<svg xmlns="http://www.w3.org/2000/svg" xmlns:xlink="http://www.w3.org/1999/xlink" width="652.634" height="524.962" viewBox="0 0 652.634 524.962">
  <defs>
    <clipPath id="clip-path">
      <rect id="Rectangle_1" data-name="Rectangle 1" width="568" height="433" transform="translate(-29 177)" fill="#fff" stroke="#707070" stroke-width="1"/>
    </clipPath>
  </defs>
  <g id="Group_9" data-name="Group 9" transform="translate(-189.468 -139.034)">
    <g id="Mask_Group_1" data-name="Mask Group 1" transform="translate(255 42)" clip-path="url(#clip-path)">
      <circle id="Ellipse_1" data-name="Ellipse 1" cx="284" cy="284" r="284" transform="translate(-29 177)" fill="#cad3d9" opacity="0.28"/>
    </g>
    <circle id="Ellipse_25" data-name="Ellipse 25" cx="3.824" cy="3.824" r="3.824" transform="translate(834.454 418.053)" fill="#e5eaee" opacity="0.864"/>
    <circle id="Ellipse_24" data-name="Ellipse 24" cx="3.876" cy="3.876" r="3.876" transform="translate(808.141 355.264)" fill="#e5eaee" opacity="0.965"/>
    <circle id="Ellipse_19" data-name="Ellipse 19" cx="5.776" cy="5.776" r="5.776" transform="translate(736.237 278.034)" fill="#e5eaee" opacity="0.873"/>
    <circle id="Ellipse_14" data-name="Ellipse 14" cx="4.408" cy="4.408" r="4.408" transform="translate(428.735 303.985)" fill="#e5eaee" opacity="0.992"/>
    <circle id="Ellipse_10" data-name="Ellipse 10" cx="4.159" cy="4.159" r="4.159" transform="translate(189.468 469.754)" fill="#e5eaee" opacity="0.963"/>
    <circle id="Ellipse_9" data-name="Ellipse 9" cx="5.932" cy="5.932" r="5.932" transform="translate(239.241 350.632)" fill="#e5eaee" opacity="0.898"/>
    <circle id="Ellipse_26" data-name="Ellipse 26" cx="13.276" cy="13.276" r="13.276" transform="translate(533.237 166.034)" fill="#e5eaee" opacity="0.873"/>
    <circle id="Ellipse_27" data-name="Ellipse 27" cx="6.776" cy="6.776" r="6.776" transform="translate(385.237 139.034)" fill="#e5eaee" opacity="0.873"/>
    <circle id="Ellipse_28" data-name="Ellipse 28" cx="6.776" cy="6.776" r="6.776" transform="translate(319.237 186.034)" fill="#e5eaee" opacity="0.873"/>
    <rect id="Rectangle_13" data-name="Rectangle 13" width="189" height="295" transform="translate(429 343)" fill="#70bcff"/>
    <g id="deliver.fe7a75fc" transform="translate(277.035 254.498)">
      <g id="Group_6" data-name="Group 6">
        <g id="Group_5" data-name="Group 5">
          <path id="Path_7" data-name="Path 7" d="M473.289,223.377l-7.07,7.071,10.675,10.674H424.965v10h51.929l-10.556,10.557,7.069,7.071,22.628-22.628Z"/>
          <path id="Path_8" data-name="Path 8" d="M430.389,219.469l7.07,7.071,22.627-22.627-22.744-22.746-7.071,7.071,10.614,10.616h-46.42v10H441Z"/>
          <path id="Path_9" data-name="Path 9" d="M430.271,272.776l10.614,10.616h-46.42v10H441l-10.614,10.615,7.07,7.071,22.627-22.628L437.342,265.7Z"/>
          <rect id="Rectangle_9" data-name="Rectangle 9" width="14.5" height="10" transform="translate(396.965 241.122)"/>
        </g>
      </g>
      <g id="Group_7" data-name="Group 7">
        <rect id="Rectangle_10" data-name="Rectangle 10" width="12.277" height="10" transform="matrix(-0.583, -0.812, 0.812, -0.583, 302.96, 343.748)"/>
        <path id="Path_10" data-name="Path 10" d="M87.207,340.147,99,340.138,128.977,357.7a187.52,187.52,0,0,0,26.988,12.561l3.539-9.353a179.792,179.792,0,0,1-25.473-11.836l-32.324-18.936-14.5.011,0-117.81,13.024-.007,29.532-19.045q2.32-1.492,4.663-3.018c12.853-8.341,26.144-16.966,39.856-21.155a55.3,55.3,0,0,1,16.246-2.6h52.585a11.564,11.564,0,0,1,3.407.505c5.508,1.632,9.363,7.1,9.376,13.284a14.927,14.927,0,0,1-.88,5.047,14.255,14.255,0,0,1-3.275,5.109c-.121.125-.246.245-.375.363l-.275.234a12.02,12.02,0,0,1-4.617,2.526,11.428,11.428,0,0,1-3.36.492l-41.155.008-1.037,3.623c-.063.214-6.371,21.592-27.648,40.027l-.115.1c-.677.574-1.363,1.155-2.063,1.728l-1.836,1.5V409.5H358.073V326.253h.416c13.541,0,24.557-10.669,24.557-23.783a23.3,23.3,0,0,0-6.852-16.454,23.728,23.728,0,0,0,13.27-21.111,23.39,23.39,0,0,0-7.909-17.462,23.447,23.447,0,0,0-4.333-42.314,23.234,23.234,0,0,0,5.824-15.354c0-13.114-11.016-23.783-24.557-23.783h-.416V102.5H168.913v57.505h1.039c-14.517,4.722-27.959,13.43-40.967,21.872q-2.33,1.511-4.637,3L97.284,202.333l-10.076.005V189.17H15.965v10H77.207V344.944H15.965v10H87.207ZM190.523,156.518a60.761,60.761,0,0,0-11.611,1.145V123.629l22.561,32.881h-1.988Zm67,42.2.371-.309c.352-.319.7-.649.984-.941a24.189,24.189,0,0,0,5.523-8.66,24.99,24.99,0,0,0,1.495-8.51c-.021-10.583-6.821-19.984-16.491-22.849a21.459,21.459,0,0,0-6.292-.931l-29.513-.006-30.2-44.01H343.33l-80.7,112.467-15.3-21.312a20.164,20.164,0,0,0,2-.489A21.782,21.782,0,0,0,257.523,198.717Zm-77.9,46.745.156-.133a106.536,106.536,0,0,0,29.506-41.249h26.037l21.149,29.467-5.31,7.4a26.222,26.222,0,0,0,0,30.595l5.327,7.425-77.231,109.74V245.771C179.383,245.668,179.5,245.565,179.625,245.462Zm178.863,70.791H336.916a13.783,13.783,0,0,1,0-27.565h21.572c8.026,0,14.557,6.184,14.557,13.782S366.515,316.253,358.488,316.253Zm6.416-37.565h-21.57a13.782,13.782,0,1,1,0-27.565H364.9c8.027,0,14.559,6.184,14.559,13.782S372.932,278.688,364.9,278.688Zm18.11-51.348c0,7.6-6.531,13.782-14.559,13.782H346.884a13.782,13.782,0,1,1,0-27.564h21.571C376.482,213.558,383.014,219.74,383.014,227.34Zm-9.969-37.565c0,7.6-6.53,13.783-14.557,13.783H336.915a13.783,13.783,0,0,1,0-27.566h21.572C366.515,175.992,373.045,182.175,373.045,189.775Zm-36.129-23.783a23.783,23.783,0,0,0-8.253,46.087,23.726,23.726,0,0,0,2.052,32.68,23.743,23.743,0,0,0-4.6,36.532,23.776,23.776,0,0,0,10.8,44.962h11.156v63.18l-30.43-42.4-8.125,5.829,33.469,46.64H183.893l78.772-111.931L288.9,324.131l8.125-5.83L259.289,265.71a16.228,16.228,0,0,1,0-18.935l88.783-123.726v42.943H336.916Z"/>
        <rect id="Rectangle_11" data-name="Rectangle 11" width="10" height="12.374" transform="translate(55.982 210.979)"/>
        <rect id="Rectangle_12" data-name="Rectangle 12" width="10" height="100.652" transform="translate(55.982 234.854)"/>
      </g>
    </g>
  </g>
</svg>
