<svg xmlns="http://www.w3.org/2000/svg" xmlns:xlink="http://www.w3.org/1999/xlink" width="652.634" height="517.929" viewBox="0 0 652.634 517.929">
  <defs>
    <clipPath id="clip-path">
      <rect id="Rectangle_1" data-name="Rectangle 1" width="568" height="433" transform="translate(-29 177)" fill="#fff" stroke="#707070" stroke-width="1"/>
    </clipPath>
  </defs>
  <g id="Group_1" data-name="Group 1" transform="translate(-174 -151)">
    <g id="Mask_Group_1" data-name="Mask Group 1" transform="translate(239.532 53.966)" clip-path="url(#clip-path)">
      <circle id="Ellipse_1" data-name="Ellipse 1" cx="284" cy="284" r="284" transform="translate(-29 177)" fill="#cad3d9" opacity="0.28"/>
    </g>
    <circle id="Ellipse_25" data-name="Ellipse 25" cx="3.824" cy="3.824" r="3.824" transform="translate(818.986 430.019)" fill="#e5eaee" opacity="0.864"/>
    <circle id="Ellipse_24" data-name="Ellipse 24" cx="3.876" cy="3.876" r="3.876" transform="translate(792.673 367.23)" fill="#e5eaee" opacity="0.965"/>
    <circle id="Ellipse_19" data-name="Ellipse 19" cx="5.776" cy="5.776" r="5.776" transform="translate(720.769 290)" fill="#e5eaee" opacity="0.873"/>
    <circle id="Ellipse_14" data-name="Ellipse 14" cx="4.408" cy="4.408" r="4.408" transform="translate(413.267 315.951)" fill="#e5eaee" opacity="0.992"/>
    <circle id="Ellipse_10" data-name="Ellipse 10" cx="4.159" cy="4.159" r="4.159" transform="translate(174 481.72)" fill="#e5eaee" opacity="0.963"/>
    <circle id="Ellipse_9" data-name="Ellipse 9" cx="5.932" cy="5.932" r="5.932" transform="translate(223.773 362.598)" fill="#e5eaee" opacity="0.898"/>
    <circle id="Ellipse_26" data-name="Ellipse 26" cx="13.276" cy="13.276" r="13.276" transform="translate(517.769 178)" fill="#e5eaee" opacity="0.873"/>
    <circle id="Ellipse_27" data-name="Ellipse 27" cx="6.776" cy="6.776" r="6.776" transform="translate(369.769 151)" fill="#e5eaee" opacity="0.873"/>
    <circle id="Ellipse_28" data-name="Ellipse 28" cx="6.776" cy="6.776" r="6.776" transform="translate(303.769 198)" fill="#e5eaee" opacity="0.873"/>
    <path id="Path_1" data-name="Path 1" d="M954,419h195V676H994L934,439S926.834,419,954,419Z" transform="translate(-616 -89)" fill="#1174d6"/>
    <g id="iconfinder_truck_1291768" transform="translate(328 369.982)">
      <g id="Icon-17">
        <path id="truck" d="M229.959,301.2a5.751,5.751,0,0,1-5.749,5.749h-11.5a5.749,5.749,0,0,1,0-11.5h11.5a5.751,5.751,0,0,1,5.749,5.749m114.98,0a5.751,5.751,0,0,1-5.749,5.749H247.206a5.749,5.749,0,0,1,0-11.5H339.19a5.751,5.751,0,0,1,5.749,5.749m-160.972,0a5.751,5.751,0,0,1-5.749,5.749h-57.49a5.749,5.749,0,0,1,0-11.5h57.49a5.751,5.751,0,0,1,5.749,5.749m-91.984,0a5.751,5.751,0,0,1-5.749,5.749H5.749a5.749,5.749,0,0,1,0-11.5H86.235a5.751,5.751,0,0,1,5.749,5.749M11.5,186.219a5.751,5.751,0,0,1,5.749-5.749H33.574l-2.432-16.4a5.751,5.751,0,0,1,11.377-1.69L45.2,180.47h41.03a5.749,5.749,0,1,1,0,11.5H17.247a5.751,5.751,0,0,1-5.749-5.749m5.749-51.741H26.21l-2.432-16.4a5.748,5.748,0,1,1,11.371-1.69l2.691,18.092H86.235a5.749,5.749,0,1,1,0,11.5H17.247a5.749,5.749,0,0,1,0-11.5m68.988,114.98a5.749,5.749,0,1,1,5.749-5.749,5.758,5.758,0,0,1-5.749,5.749m0-23a17.247,17.247,0,1,0,17.247,17.247,17.268,17.268,0,0,0-17.247-17.247m195.465,23a5.749,5.749,0,1,1,5.749-5.749,5.758,5.758,0,0,1-5.749,5.749m0-23a17.247,17.247,0,1,0,17.247,17.247A17.268,17.268,0,0,0,281.7,226.461m0,45.992a28.745,28.745,0,1,1,28.745-28.745A28.778,28.778,0,0,1,281.7,272.453m55.805-119.044-15.758-15.758-5.553-66.412a28.778,28.778,0,0,0-28.745-28.745H247.206a5.749,5.749,0,1,0,0,11.5h40.243c9.348,0,17.247,7.9,17.264,17.724l5.232,62.762H291l7.341-14.677a5.751,5.751,0,1,0-10.291-5.14l-9.905,19.817H247.206a5.749,5.749,0,1,0,0,11.5h66.608l15.563,15.563c3.277,3.277,4.053,10.814,4.065,13.182v63.239H321.483a40.243,40.243,0,1,0,0,11.5H339.19a5.751,5.751,0,0,0,5.749-5.749V174.721c0-1.42-.207-14.091-7.433-21.312M86.235,272.453a28.745,28.745,0,1,1,28.745-28.745,28.778,28.778,0,0,1-28.745,28.745M224.21,8H40.243A28.778,28.778,0,0,0,11.5,36.745a5.99,5.99,0,0,0,.063.851L19.2,88.486H5.749a5.749,5.749,0,0,0,0,11.5H86.235a5.749,5.749,0,0,0,0-11.5H30.82L23,36.348A17.269,17.269,0,0,1,40.243,19.5H218.461V237.959H126.018a40.243,40.243,0,1,0,0,11.5H224.21a5.751,5.751,0,0,0,5.749-5.749V13.749A5.751,5.751,0,0,0,224.21,8" transform="translate(0 -8)" fill-rule="evenodd"/>
      </g>
    </g>
  </g>
</svg>
