<?xml version="1.0" ?><!DOCTYPE svg  PUBLIC '-//W3C//DTD SVG 1.1//EN'  'http://www.w3.org/Graphics/SVG/1.1/DTD/svg11.dtd'><svg enable-background="new 0 0 32 32" height="32px" id="_x3C_Layer_x3E_" version="1.1" viewBox="0 0 32 32" width="32px" xml:space="preserve" xmlns="http://www.w3.org/2000/svg" xmlns:xlink="http://www.w3.org/1999/xlink"><g id="clipboard"><g><g><g><path d="M26.5,3h-5.958v1H26.5C26.776,4,27,4.225,27,4.5v25c0,0.275-0.224,0.5-0.5,0.5h-21      C5.224,30,5,29.775,5,29.5v-25C5,4.225,5.224,4,5.5,4h6V3h-6C4.673,3,4,3.673,4,4.5v25C4,30.327,4.673,31,5.5,31h21      c0.827,0,1.5-0.673,1.5-1.5v-25C28,3.673,27.327,3,26.5,3z" fill="#263238"/></g></g><g><path d="M25.5,22c-0.276,0-0.5-0.224-0.5-0.5V6h-2.5C22.224,6,22,5.776,22,5.5S22.224,5,22.5,5h3     C25.776,5,26,5.224,26,5.5v16C26,21.776,25.776,22,25.5,22z" fill="#263238"/></g><g><path d="M20.5,29h-14C6.224,29,6,28.776,6,28.5v-23C6,5.224,6.224,5,6.5,5h3C9.776,5,10,5.224,10,5.5     S9.776,6,9.5,6H7v22h13.5c0.276,0,0.5,0.224,0.5,0.5S20.776,29,20.5,29z" fill="#263238"/></g><g><path d="M20.5,29c-0.064,0-0.129-0.013-0.191-0.038C20.122,28.885,20,28.702,20,28.5v-5     c0-0.276,0.224-0.5,0.5-0.5h5c0.202,0,0.385,0.122,0.462,0.309c0.078,0.187,0.035,0.402-0.108,0.545l-5,5     C20.758,28.949,20.63,29,20.5,29z M21,24v3.293L24.293,24H21z" fill="#263238"/></g><g id="customer_survey_questionnaire_2_"><g><g><path d="M9.653,18.016c-0.004,0-0.007,0-0.011,0c-0.142-0.003-0.276-0.066-0.368-0.174l-1.153-1.346       c-0.18-0.209-0.156-0.525,0.054-0.705c0.21-0.18,0.526-0.154,0.705,0.055l0.791,0.922l1.59-1.693       c0.189-0.201,0.505-0.211,0.707-0.021s0.211,0.506,0.022,0.707l-1.972,2.099C9.923,17.959,9.791,18.016,9.653,18.016z" fill="#263238"/></g></g><g><g><path d="M9.653,13.016c-0.004,0-0.007,0-0.011,0c-0.142-0.003-0.276-0.066-0.368-0.174l-1.153-1.346       c-0.18-0.209-0.156-0.525,0.054-0.705c0.21-0.18,0.526-0.154,0.705,0.055l0.791,0.922l1.59-1.693       c0.189-0.201,0.505-0.211,0.707-0.021s0.211,0.506,0.022,0.707l-1.972,2.099C9.923,12.959,9.791,13.016,9.653,13.016z" fill="#263238"/></g></g><g><g><path d="M17.5,23h-4c-0.276,0-0.5-0.224-0.5-0.5s0.224-0.5,0.5-0.5h4c0.276,0,0.5,0.224,0.5,0.5       S17.776,23,17.5,23z" fill="#263238"/></g></g><g><g><path d="M22.5,21h-9c-0.276,0-0.5-0.224-0.5-0.5s0.224-0.5,0.5-0.5h9c0.276,0,0.5,0.224,0.5,0.5       S22.776,21,22.5,21z" fill="#263238"/></g></g><g><g><path d="M22.5,16h-3c-0.276,0-0.5-0.224-0.5-0.5s0.224-0.5,0.5-0.5h3c0.276,0,0.5,0.224,0.5,0.5       S22.776,16,22.5,16z" fill="#263238"/></g></g><g><g><path d="M20.5,18h-7c-0.276,0-0.5-0.224-0.5-0.5s0.224-0.5,0.5-0.5h7c0.276,0,0.5,0.224,0.5,0.5       S20.776,18,20.5,18z" fill="#263238"/></g></g><g><g><path d="M17.5,16h-4c-0.276,0-0.5-0.224-0.5-0.5s0.224-0.5,0.5-0.5h4c0.276,0,0.5,0.224,0.5,0.5       S17.776,16,17.5,16z" fill="#263238"/></g></g><g><g><path d="M22.5,11h-9c-0.276,0-0.5-0.224-0.5-0.5s0.224-0.5,0.5-0.5h9c0.276,0,0.5,0.224,0.5,0.5       S22.776,11,22.5,11z" fill="#263238"/></g></g><g><g><path d="M18.5,13h-5c-0.276,0-0.5-0.224-0.5-0.5s0.224-0.5,0.5-0.5h5c0.276,0,0.5,0.224,0.5,0.5       S18.776,13,18.5,13z" fill="#263238"/></g></g><g><g><path d="M10.5,23h-2C8.224,23,8,22.776,8,22.5v-2C8,20.224,8.224,20,8.5,20h2c0.276,0,0.5,0.224,0.5,0.5v2       C11,22.776,10.776,23,10.5,23z M9,22h1v-1H9V22z" fill="#263238"/></g></g></g></g><g><path d="M20.5,7h-9C11.224,7,11,6.776,11,6.5v-3C11,2.673,11.673,2,12.5,2C12.776,2,13,2.224,13,2.5    S12.776,3,12.5,3C12.224,3,12,3.225,12,3.5V6h8V3.5C20,3.225,19.776,3,19.5,3C19.224,3,19,2.776,19,2.5S19.224,2,19.5,2    C20.327,2,21,2.673,21,3.5v3C21,6.776,20.776,7,20.5,7z" fill="#263238"/></g><g><path d="M17.5,3C17.224,3,17,2.776,17,2.5C17,2.225,16.776,2,16.5,2h-1c-0.108,0-0.211,0.033-0.296,0.097    C15.074,2.192,15,2.339,15,2.5C15,2.776,14.776,3,14.5,3S14,2.776,14,2.5c0-0.475,0.228-0.926,0.609-1.207    C14.867,1.102,15.176,1,15.5,1h1C17.327,1,18,1.673,18,2.5C18,2.776,17.776,3,17.5,3z" fill="#263238"/></g></g></svg>