<svg xmlns="http://www.w3.org/2000/svg" xmlns:xlink="http://www.w3.org/1999/xlink" width="652.634" height="557.2" viewBox="0 0 652.634 557.2">
  <defs>
    <clipPath id="clip-path">
      <rect id="Rectangle_1" data-name="Rectangle 1" width="568" height="433" transform="translate(-29 177)" fill="#fff" stroke="#707070" stroke-width="1"/>
    </clipPath>
  </defs>
  <g id="Grupo_2" data-name="Grupo 2" transform="translate(-548 -346)">
    <g id="empty_client" transform="translate(92 -39)">
      <g id="Mask_Group_1" data-name="Mask Group 1" transform="translate(521.532 287.966)" clip-path="url(#clip-path)">
        <circle id="Ellipse_1" data-name="Ellipse 1" cx="284" cy="284" r="284" transform="translate(-29 177)" fill="#cad3d9" opacity="0.28"/>
      </g>
      <circle id="Ellipse_25" data-name="Ellipse 25" cx="3.824" cy="3.824" r="3.824" transform="translate(1100.986 664.019)" fill="#e5eaee" opacity="0.864"/>
      <circle id="Ellipse_24" data-name="Ellipse 24" cx="3.876" cy="3.876" r="3.876" transform="translate(1074.673 601.23)" fill="#e5eaee" opacity="0.965"/>
      <circle id="Ellipse_19" data-name="Ellipse 19" cx="5.776" cy="5.776" r="5.776" transform="translate(1002.769 524)" fill="#e5eaee" opacity="0.873"/>
      <circle id="Ellipse_14" data-name="Ellipse 14" cx="4.408" cy="4.408" r="4.408" transform="translate(695.267 549.951)" fill="#e5eaee" opacity="0.992"/>
      <circle id="Ellipse_10" data-name="Ellipse 10" cx="4.159" cy="4.159" r="4.159" transform="translate(456 715.72)" fill="#e5eaee" opacity="0.963"/>
      <circle id="Ellipse_9" data-name="Ellipse 9" cx="5.932" cy="5.932" r="5.932" transform="translate(505.773 596.598)" fill="#e5eaee" opacity="0.898"/>
      <circle id="Ellipse_26" data-name="Ellipse 26" cx="13.276" cy="13.276" r="13.276" transform="translate(799.769 412)" fill="#e5eaee" opacity="0.873"/>
      <circle id="Ellipse_27" data-name="Ellipse 27" cx="6.776" cy="6.776" r="6.776" transform="translate(651.769 385)" fill="#e5eaee" opacity="0.873"/>
      <circle id="Ellipse_28" data-name="Ellipse 28" cx="6.776" cy="6.776" r="6.776" transform="translate(585.769 432)" fill="#e5eaee" opacity="0.873"/>
      <rect id="Retângulo_1" data-name="Retângulo 1" width="399" height="315" transform="translate(540 558)" fill="#ff2753"/>
      <g id="iconfinder_shoppingstoremarketcity_elements_4213857" transform="translate(520 510.1)">
        <g id="Grupo_38" data-name="Grupo 38">
          <g id="Grupo_33" data-name="Grupo 33">
            <g id="Grupo_2-2" data-name="Grupo 2">
              <g id="Grupo_1" data-name="Grupo 1">
                <path id="Caminho_1" data-name="Caminho 1" d="M68.6,357.2H190.4l-7.5-7.5v37.5l7.5-7.5H68.6l7.5,7.5V349.7c0-9.7-15-9.7-15,0v37.5a7.555,7.555,0,0,0,7.5,7.5H190.4a7.555,7.555,0,0,0,7.5-7.5V349.7a7.555,7.555,0,0,0-7.5-7.5H68.6C59,342.2,59,357.2,68.6,357.2Z"/>
              </g>
            </g>
            <g id="Grupo_4" data-name="Grupo 4">
              <g id="Grupo_3" data-name="Grupo 3">
                <path id="Caminho_2" data-name="Caminho 2" d="M321.6,357.2H443.4l-7.5-7.5v37.5l7.5-7.5H321.6l7.5,7.5V349.7c0-9.7-15-9.7-15,0v37.5a7.555,7.555,0,0,0,7.5,7.5H443.4a7.555,7.555,0,0,0,7.5-7.5V349.7a7.555,7.555,0,0,0-7.5-7.5H321.6C311.9,342.2,311.9,357.2,321.6,357.2Z"/>
              </g>
            </g>
            <g id="Grupo_6" data-name="Grupo 6">
              <g id="Grupo_5" data-name="Grupo 5">
                <path id="Caminho_3" data-name="Caminho 3" d="M197.9,387.2V264.5c0-9.7-15-9.7-15,0V387.2C182.9,396.8,197.9,396.8,197.9,387.2Z"/>
              </g>
            </g>
            <g id="Grupo_8" data-name="Grupo 8">
              <g id="Grupo_7" data-name="Grupo 7">
                <path id="Caminho_4" data-name="Caminho 4" d="M329.1,387.2V264.5c0-9.7-15-9.7-15,0V387.2C314.1,396.8,329.1,396.8,329.1,387.2Z"/>
              </g>
            </g>
            <g id="Grupo_10" data-name="Grupo 10">
              <g id="Grupo_9" data-name="Grupo 9">
                <path id="Caminho_5" data-name="Caminho 5" d="M314.1,264.5V387.2c0,9.7,15,9.7,15,0V264.5C329.1,254.8,314.1,254.8,314.1,264.5Z"/>
              </g>
            </g>
            <g id="Grupo_12" data-name="Grupo 12">
              <g id="Grupo_11" data-name="Grupo 11">
                <path id="Caminho_6" data-name="Caminho 6" d="M136.1,156.7v24.4c0,16.6-13.6,29.7-30,30-16.6.3-29.7-13.8-30-30-.1-8.1,0-16.3,0-24.4,0-9.7-15-9.7-15,0,0,11-.9,22.4.9,33.3,3.5,21,23.4,35.7,44.1,36.1,21.1.4,39.9-15.7,44.1-36.1,2.2-10.7.9-22.4.9-33.3C151.1,147,136.1,147,136.1,156.7Z"/>
              </g>
            </g>
            <g id="Grupo_14" data-name="Grupo 14">
              <g id="Grupo_13" data-name="Grupo 13">
                <path id="Caminho_7" data-name="Caminho 7" d="M211,156.7v24.4c0,16.6-13.6,29.7-30,30-16.6.3-29.7-13.8-30-30-.1-8.1,0-16.3,0-24.4,0-9.7-15-9.7-15,0,0,11-.9,22.4.9,33.3,3.5,21,23.4,35.7,44.1,36.1,21.1.4,39.9-15.7,44.1-36.1,2.2-10.7.9-22.4.9-33.3C226,147,211,147,211,156.7Z"/>
              </g>
            </g>
            <g id="Grupo_16" data-name="Grupo 16">
              <g id="Grupo_15" data-name="Grupo 15">
                <path id="Caminho_8" data-name="Caminho 8" d="M286,156.7v24.4c0,16.6-13.6,29.7-30,30-16.6.3-29.7-13.8-30-30-.1-8.1,0-16.3,0-24.4,0-9.7-15-9.7-15,0,0,11-.9,22.4.9,33.3,3.5,21,23.4,35.7,44.1,36.1,21.1.4,39.9-15.7,44.1-36.1,2.2-10.7.9-22.4.9-33.3C301,147,286,147,286,156.7Z"/>
              </g>
            </g>
            <g id="Grupo_18" data-name="Grupo 18">
              <g id="Grupo_17" data-name="Grupo 17">
                <path id="Caminho_9" data-name="Caminho 9" d="M368.4,164.2h0l-7.5-7.5v24.4c0,16.6-13.6,29.7-30,30-16.6.3-29.7-13.8-30-30-.1-8.1,0-16.3,0-24.4,0-9.7-15-9.7-15,0,0,11-.9,22.4.9,33.3,3.5,21,23.4,35.7,44.1,36.1,21.1.4,39.9-15.7,44.1-36.1,2.2-10.7.9-22.4.9-33.3a7.555,7.555,0,0,0-7.5-7.5h0C358.7,149.2,358.7,164.2,368.4,164.2Z"/>
              </g>
            </g>
            <g id="Grupo_20" data-name="Grupo 20">
              <g id="Grupo_19" data-name="Grupo 19">
                <path id="Caminho_10" data-name="Caminho 10" d="M443.4,164.2h0l-7.5-7.5v24.4A30.209,30.209,0,0,1,407.3,211c-16.4.9-30.4-12.3-31.3-28.5-.5-8.6,0-17.2,0-25.8,0-9.7-15-9.7-15,0,0,11-.9,22.4.9,33.3,3.5,21,23.4,35.7,44.1,36.1,20.9.4,39.4-15.2,43.9-35.3,2.5-10.9,1.1-23,1.1-34.1a7.555,7.555,0,0,0-7.5-7.5h0c-9.8,0-9.8,15-.1,15Z"/>
              </g>
            </g>
            <g id="Grupo_22" data-name="Grupo 22">
              <g id="Grupo_21" data-name="Grupo 21">
                <path id="Caminho_11" data-name="Caminho 11" d="M492.8,379.6H21c-8.7,0-16,5.6-16,14.9v30.1a7.555,7.555,0,0,0,7.5,7.5H499.6a7.555,7.555,0,0,0,7.5-7.5V394.1c0-8.4-6.5-13.7-14.3-14.5-4.1-.4-7.5,3.7-7.5,7.5,0,4.4,3.4,7.1,7.5,7.5-.8-.1-.7-1.3-.7-.1v30l7.5-7.5H12.5l7.5,7.5v-30c0-1.2.1.1-.7.1H492.9C502.5,394.6,502.5,379.6,492.8,379.6Z"/>
              </g>
            </g>
            <g id="Grupo_24" data-name="Grupo 24">
              <g id="Grupo_23" data-name="Grupo 23">
                <path id="Caminho_12" data-name="Caminho 12" d="M407.2,269.8c-5.4-3.6-12.7-2.6-18.9-2.6H367.1c-9.2,0-15.6,6.3-15.6,15.5v20.9c0,9.1,5.8,16.1,15.2,16.1h20.6c6.4,0,13.5,1,19.3-2.2,8-4.4,6.7-14.5,6.7-22.1,0-8.3,1.6-18-4.7-24.5-6.8-6.9-17.4,3.7-10.6,10.6.6.6.3,3.2.3,4.4v18.6c0,1.1,1.4.1-.6.1h-31c-.8,0-1-.3-.4.2.4.4.2.6.2-.3V282.2c0-1.4.1-.2-.7-.1h32.7c1.4,0-1.2-1,1.1.5C407.7,288.2,415.2,275.2,407.2,269.8Z"/>
              </g>
            </g>
            <g id="Grupo_26" data-name="Grupo 26">
              <g id="Grupo_25" data-name="Grupo 25">
                <path id="Caminho_13" data-name="Caminho 13" d="M154.3,269.8c-5.4-3.6-12.7-2.6-18.9-2.6H114.2c-9.2,0-15.6,6.3-15.6,15.5v20.9c0,9.1,5.8,16.1,15.2,16.1h20.6c6.4,0,13.5,1,19.3-2.2,8-4.4,6.7-14.5,6.7-22.1,0-8.3,1.6-18-4.7-24.5-6.8-6.9-17.4,3.7-10.6,10.6.6.6.3,3.2.3,4.4v18.6c0,1.4-.1.2.7.1H113.8c-.8,0-1-.3-.4.2.4.4.2.6.2-.3V282.2c0-1.4.1-.2-.7-.1h32.7c1.4,0-1.2-1,1.1.5C154.7,288.2,162.2,275.2,154.3,269.8Z"/>
              </g>
            </g>
            <g id="Grupo_28" data-name="Grupo 28">
              <g id="Grupo_27" data-name="Grupo 27">
                <path id="Caminho_14" data-name="Caminho 14" d="M68.6,94.9H443.3l-7.5-7.5v74.9l7.5-7.5H68.6l7.5,7.5V87.4c0-9.7-15-9.7-15,0v74.9a7.555,7.555,0,0,0,7.5,7.5H443.3a7.555,7.555,0,0,0,7.5-7.5V87.4a7.555,7.555,0,0,0-7.5-7.5H68.6C59,79.9,59,94.9,68.6,94.9Z"/>
              </g>
            </g>
            <g id="Grupo_30" data-name="Grupo 30">
              <g id="Grupo_29" data-name="Grupo 29">
                <path id="Caminho_15" data-name="Caminho 15" d="M143.6,94.9h74.9L211,87.4v74.9l7.5-7.5H143.6l7.5,7.5V87.4c0-9.7-15-9.7-15,0v74.9a7.555,7.555,0,0,0,7.5,7.5h74.9a7.555,7.555,0,0,0,7.5-7.5V87.4a7.555,7.555,0,0,0-7.5-7.5H143.6C133.9,79.9,133.9,94.9,143.6,94.9Z"/>
              </g>
            </g>
            <g id="Grupo_32" data-name="Grupo 32">
              <g id="Grupo_31" data-name="Grupo 31">
                <path id="Caminho_16" data-name="Caminho 16" d="M293.5,94.9h74.9l-7.5-7.5v74.9l7.5-7.5H293.5l7.5,7.5V87.4c0-9.7-15-9.7-15,0v74.9a7.555,7.555,0,0,0,7.5,7.5h74.9a7.555,7.555,0,0,0,7.5-7.5V87.4a7.555,7.555,0,0,0-7.5-7.5H293.5C283.8,79.9,283.8,94.9,293.5,94.9Z"/>
              </g>
            </g>
          </g>
          <g id="Grupo_35" data-name="Grupo 35">
            <g id="Grupo_34" data-name="Grupo 34">
              <path id="Caminho_17" data-name="Caminho 17" d="M450.9,387.2V87.5c0-9.7-15-9.7-15,0V387.3c0,9.5,15,9.5,15-.1Z"/>
            </g>
          </g>
          <g id="Grupo_37" data-name="Grupo 37">
            <g id="Grupo_36" data-name="Grupo 36">
              <path id="Caminho_18" data-name="Caminho 18" d="M76.1,387.2V87.5c0-9.7-15-9.7-15,0V387.3c0,9.5,15,9.5,15-.1Z"/>
            </g>
          </g>
        </g>
        <g id="Grupo_40" data-name="Grupo 40">
          <g id="Grupo_39" data-name="Grupo 39">
            <path id="Caminho_19" data-name="Caminho 19" d="M235.5,387.2V264.5c0-9.7-15-9.7-15,0V387.2C220.5,396.8,235.5,396.8,235.5,387.2Z"/>
          </g>
        </g>
        <g id="Grupo_42" data-name="Grupo 42">
          <g id="Grupo_41" data-name="Grupo 41">
            <path id="Caminho_20" data-name="Caminho 20" d="M190.4,272H321.6c9.7,0,9.7-15,0-15H190.4C180.7,257,180.7,272,190.4,272Z"/>
          </g>
        </g>
      </g>
    </g>
    <g id="Grupo_1-2" data-name="Grupo 1" transform="translate(-68 43)">
      <g id="iconfinder_ic_not_interested_48px_3669319" transform="translate(874 388)">
        <path id="Caminho_2-2" data-name="Caminho 2" d="M147.183,4A143.183,143.183,0,1,0,290.367,147.183,143.144,143.144,0,0,0,147.183,4Zm0,257.73A114.426,114.426,0,0,1,56.763,77.023L217.343,237.6A114.117,114.117,0,0,1,147.183,261.73Zm90.42-44.387L77.023,56.763A114.426,114.426,0,0,1,237.6,217.343Z" transform="translate(24.637 24.637)" fill="#fff" stroke="#fff" stroke-width="30"/>
      </g>
      <g id="iconfinder_ic_not_interested_48px_3669319-2" data-name="iconfinder_ic_not_interested_48px_3669319" transform="translate(874 388)">
        <path id="Caminho_1-2" data-name="Caminho 1" d="M0,0H343.64V343.64H0Z" fill="none"/>
        <path id="Caminho_2-3" data-name="Caminho 2" d="M147.183,4A143.183,143.183,0,1,0,290.367,147.183,143.144,143.144,0,0,0,147.183,4Zm0,257.73A114.426,114.426,0,0,1,56.763,77.023L217.343,237.6A114.117,114.117,0,0,1,147.183,261.73Zm90.42-44.387L77.023,56.763A114.426,114.426,0,0,1,237.6,217.343Z" transform="translate(24.637 24.637)"/>
      </g>
    </g>
  </g>
</svg>
