<?xml version="1.0" ?><!DOCTYPE svg  PUBLIC '-//W3C//DTD SVG 1.1//EN'  'http://www.w3.org/Graphics/SVG/1.1/DTD/svg11.dtd'><svg enable-background="new 0 0 512 512" height="512px" id="Wrap_x5F_package" version="1.1" viewBox="0 0 512 512" width="512px" xml:space="preserve" xmlns="http://www.w3.org/2000/svg" xmlns:xlink="http://www.w3.org/1999/xlink"><g><g><rect height="10" width="18.182" x="29.885" y="441.859"/><rect height="13.67" width="10" x="121.609" y="209.917"/><polygon points="121.609,441.859 61.272,441.859 61.272,451.859 121.609,451.859 274.861,451.859 367.988,451.859     367.988,441.859 274.861,441.859 131.609,441.859 131.609,236.041 121.609,236.041   "/><path d="M430.242,153.463H184.299l-19.823-57.929c-7.244-21.17-27.146-35.394-49.521-35.394H61.272    c-28.639,0-51.938,23.299-51.938,51.938c0,28.639,23.299,51.938,51.938,51.938c23.161,0,42.823-15.24,49.501-36.218l10.835,31.5    v38.081h10v-27.138l281.258,271.617h-31.158v10h41.514h7.02h72.424v-10h-72.424V153.463z M178.313,163.463l241.929,235.393v36.225    L138.984,163.463H178.313z M420.242,384.904L192.654,163.463h227.588V384.904z M114.954,70.141    c18.101,0,34.2,11.506,40.061,28.631l18.715,54.691h-43.553l-18.413-53.527c-2.921-12.144-10.114-22.637-19.901-29.795H114.954z     M61.272,154.017c-23.125,0-41.938-18.813-41.938-41.938s18.813-41.938,41.938-41.938s41.939,18.813,41.939,41.938    S84.397,154.017,61.272,154.017z"/><path d="M61.272,93.38c-10.309,0-18.695,8.387-18.695,18.695s8.386,18.695,18.695,18.695s18.695-8.387,18.695-18.695    S71.581,93.38,61.272,93.38z M61.272,120.771c-4.794,0-8.695-3.9-8.695-8.695s3.9-8.695,8.695-8.695s8.695,3.9,8.695,8.695    S66.067,120.771,61.272,120.771z"/><g><path d="M410.261,258.663V174.12h-84.544v84.543H410.261z M335.717,184.12h64.544v64.543h-64.544V184.12z"/><rect height="10" width="40.922" x="347.527" y="194.878"/><rect height="10" width="40.922" x="347.527" y="211.392"/><rect height="10" width="37.272" x="367.988" y="269.646"/><rect height="10" width="37.272" x="367.988" y="288.195"/><path d="M286.529,354.438l-25.47-17.131l-17.175,25.535l8.298,5.582l7.333-10.902c4.627,15.558,0.463,32.77-11.235,44.468     c-8.726,8.727-20.185,13.089-31.647,13.088c-11.46-0.001-22.923-4.364-31.647-13.088l-7.071,7.071     c10.676,10.676,24.695,16.014,38.718,16.012c14.02-0.002,28.045-5.338,38.718-16.012c14.278-14.278,19.383-35.271,13.783-54.271     l11.813,7.946L286.529,354.438z"/><path d="M141.793,379.188l25.469,17.132l17.175-25.536l-8.298-5.58l-7.332,10.9c-4.628-15.557-0.464-32.77,11.235-44.468     c17.451-17.449,45.844-17.45,63.293,0l7.071-7.071c-21.35-21.349-56.087-21.348-77.436,0     c-14.278,14.279-19.383,35.273-13.783,54.272l-11.814-7.946L141.793,379.188z"/></g></g></g></svg>